{
    "asset" : {
        "generator" : "Khronos glTF Blender I/O v1.7.33",
        "version" : "2.0"
    },
    "scene" : 0,
    "scenes" : [
        {
            "name" : "Scene",
            "nodes" : [
                6
            ]
        }
    ],
    "nodes" : [
        {
            "mesh" : 0,
            "name" : "Object_1"
        },
        {
            "mesh" : 1,
            "name" : "Object_2"
        },
        {
            "mesh" : 2,
            "name" : "Object_3"
        },
        {
            "mesh" : 3,
            "name" : "Object_4"
        },
        {
            "children" : [
                0,
                1,
                2,
                3
            ],
            "name" : "ToteBag_v1.obj.cleaner.materialmerger.gles"
        },
        {
            "children" : [
                4
            ],
            "name" : "RootNode (model correction matrix)"
        },
        {
            "children" : [
                5
            ],
            "name" : "RootNode (gltf orientation matrix)",
            "rotation" : [
                -0.706781268119812,
                0.02145407162606716,
                0.02145407162606716,
                0.706781268119812
            ]
        }
    ],
    "materials" : [
        {
            "doubleSided" : true,
            "name" : "None.004",
            "pbrMetallicRoughness" : {
                "baseColorFactor" : [
                    0.968932032585144,
                    0.9161274433135986,
                    1,
                    1
                ],
                "metallicFactor" : 0,
                "roughnessFactor" : 0.4000000059604645
            }
        },
        {
            "doubleSided" : true,
            "name" : "None.007",
            "pbrMetallicRoughness" : {
                "baseColorFactor" : [
                    0.8623420000076294,
                    0.8660394549369812,
                    0.8771868944168091,
                    1
                ],
                "metallicFactor" : 0,
                "roughnessFactor" : 0.4000000059604645
            }
        },
        {
            "doubleSided" : true,
            "name" : "None.006",
            "pbrMetallicRoughness" : {
                "baseColorFactor" : [
                    1,
                    0.9507427215576172,
                    0.9395080804824829,
                    1
                ],
                "metallicFactor" : 0,
                "roughnessFactor" : 1
            }
        },
        {
            "doubleSided" : true,
            "name" : "None.005",
            "pbrMetallicRoughness" : {
                "baseColorFactor" : [
                    1,
                    0.9390882253646851,
                    0.9503995180130005,
                    1
                ],
                "metallicFactor" : 0,
                "roughnessFactor" : 1
            }
        }
    ],
    "meshes" : [
        {
            "name" : "Object_1",
            "primitives" : [
                {
                    "attributes" : {
                        "POSITION" : 0,
                        "NORMAL" : 1,
                        "TEXCOORD_0" : 2
                    },
                    "indices" : 3,
                    "material" : 0
                }
            ]
        },
        {
            "name" : "Object_2",
            "primitives" : [
                {
                    "attributes" : {
                        "POSITION" : 4,
                        "NORMAL" : 5,
                        "TEXCOORD_0" : 6
                    },
                    "indices" : 7,
                    "material" : 1
                }
            ]
        },
        {
            "name" : "Object_3",
            "primitives" : [
                {
                    "attributes" : {
                        "POSITION" : 8,
                        "NORMAL" : 9,
                        "TEXCOORD_0" : 10
                    },
                    "indices" : 11,
                    "material" : 2
                }
            ]
        },
        {
            "name" : "Object_4",
            "primitives" : [
                {
                    "attributes" : {
                        "POSITION" : 12,
                        "NORMAL" : 13,
                        "TEXCOORD_0" : 14
                    },
                    "indices" : 15,
                    "material" : 3
                }
            ]
        }
    ],
    "accessors" : [
        {
            "bufferView" : 0,
            "componentType" : 5126,
            "count" : 45,
            "max" : [
                0.17086400091648102,
                -1.026705026626587,
                1.4115649461746216
            ],
            "min" : [
                -0.17036400735378265,
                -1.0443429946899414,
                1.0703359842300415
            ],
            "type" : "VEC3"
        },
        {
            "bufferView" : 1,
            "componentType" : 5126,
            "count" : 45,
            "type" : "VEC3"
        },
        {
            "bufferView" : 2,
            "componentType" : 5126,
            "count" : 45,
            "type" : "VEC2"
        },
        {
            "bufferView" : 3,
            "componentType" : 5123,
            "count" : 192,
            "type" : "SCALAR"
        },
        {
            "bufferView" : 4,
            "componentType" : 5126,
            "count" : 4430,
            "max" : [
                1.347741961479187,
                1.0417670011520386,
                1.6312179565429688
            ],
            "min" : [
                -1.345541000366211,
                -1.0417300462722778,
                0.004668000154197216
            ],
            "type" : "VEC3"
        },
        {
            "bufferView" : 5,
            "componentType" : 5126,
            "count" : 4430,
            "type" : "VEC3"
        },
        {
            "bufferView" : 6,
            "componentType" : 5126,
            "count" : 4430,
            "type" : "VEC2"
        },
        {
            "bufferView" : 7,
            "componentType" : 5123,
            "count" : 23880,
            "type" : "SCALAR"
        },
        {
            "bufferView" : 8,
            "componentType" : 5126,
            "count" : 1325,
            "max" : [
                1.3410429954528809,
                1.0314350128173828,
                1.5775450468063354
            ],
            "min" : [
                -1.3422319889068604,
                -1.031404972076416,
                0.02011300064623356
            ],
            "type" : "VEC3"
        },
        {
            "bufferView" : 9,
            "componentType" : 5126,
            "count" : 1325,
            "type" : "VEC3"
        },
        {
            "bufferView" : 10,
            "componentType" : 5126,
            "count" : 1325,
            "type" : "VEC2"
        },
        {
            "bufferView" : 11,
            "componentType" : 5123,
            "count" : 6624,
            "type" : "SCALAR"
        },
        {
            "bufferView" : 12,
            "componentType" : 5126,
            "count" : 4320,
            "max" : [
                0.6595020294189453,
                1.4000129699707031,
                1.293576955795288
            ],
            "min" : [
                -0.6583669781684875,
                -1.4000129699707031,
                0.008958999998867512
            ],
            "type" : "VEC3"
        },
        {
            "bufferView" : 13,
            "componentType" : 5126,
            "count" : 4320,
            "type" : "VEC3"
        },
        {
            "bufferView" : 14,
            "componentType" : 5126,
            "count" : 4320,
            "type" : "VEC2"
        },
        {
            "bufferView" : 15,
            "componentType" : 5123,
            "count" : 22272,
            "type" : "SCALAR"
        }
    ],
    "bufferViews" : [
        {
            "buffer" : 0,
            "byteLength" : 540,
            "byteOffset" : 0
        },
        {
            "buffer" : 0,
            "byteLength" : 540,
            "byteOffset" : 540
        },
        {
            "buffer" : 0,
            "byteLength" : 360,
            "byteOffset" : 1080
        },
        {
            "buffer" : 0,
            "byteLength" : 384,
            "byteOffset" : 1440
        },
        {
            "buffer" : 0,
            "byteLength" : 53160,
            "byteOffset" : 1824
        },
        {
            "buffer" : 0,
            "byteLength" : 53160,
            "byteOffset" : 54984
        },
        {
            "buffer" : 0,
            "byteLength" : 35440,
            "byteOffset" : 108144
        },
        {
            "buffer" : 0,
            "byteLength" : 47760,
            "byteOffset" : 143584
        },
        {
            "buffer" : 0,
            "byteLength" : 15900,
            "byteOffset" : 191344
        },
        {
            "buffer" : 0,
            "byteLength" : 15900,
            "byteOffset" : 207244
        },
        {
            "buffer" : 0,
            "byteLength" : 10600,
            "byteOffset" : 223144
        },
        {
            "buffer" : 0,
            "byteLength" : 13248,
            "byteOffset" : 233744
        },
        {
            "buffer" : 0,
            "byteLength" : 51840,
            "byteOffset" : 246992
        },
        {
            "buffer" : 0,
            "byteLength" : 51840,
            "byteOffset" : 298832
        },
        {
            "buffer" : 0,
            "byteLength" : 34560,
            "byteOffset" : 350672
        },
        {
            "buffer" : 0,
            "byteLength" : 44544,
            "byteOffset" : 385232
        }
    ],
    "buffers" : [
        {
            "byteLength" : 429776,
            "uri" : "data:application/octet-stream;base64,"
        }
    ]
}
