{
    "asset" : {
        "generator" : "Khronos glTF Blender I/O v1.7.33",
        "version" : "2.0"
    },
    "scene" : 0,
    "scenes" : [
        {
            "name" : "Scene",
            "nodes" : [
                12,
                14,
                15
            ]
        }
    ],
    "nodes" : [
        {
            "mesh" : 0,
            "name" : "Object_1"
        },
        {
            "mesh" : 1,
            "name" : "Object_2"
        },
        {
            "mesh" : 2,
            "name" : "Object_3"
        },
        {
            "children" : [
                0,
                1,
                2
            ],
            "name" : "Cube",
            "rotation" : [
                -0.7071068286895752,
                0,
                0,
                0.7071067094802856
            ],
            "scale" : [
                27.518627166748047,
                27.518627166748047,
                27.518627166748047
            ],
            "translation" : [
                -36.779930114746094,
                157.5426483154297,
                54.404640197753906
            ]
        },
        {
            "mesh" : 3,
            "name" : "Object_4"
        },
        {
            "children" : [
                4
            ],
            "name" : "Plane.001",
            "rotation" : [
                -0.5000001192092896,
                -0.49999991059303284,
                -0.5,
                0.5
            ],
            "scale" : [
                38.00326156616211,
                70,
                59.33755111694336
            ],
            "translation" : [
                3.9528861045837402,
                150.99603271484375,
                54.274147033691406
            ]
        },
        {
            "mesh" : 4,
            "name" : "Object_5"
        },
        {
            "mesh" : 5,
            "name" : "Object_6"
        },
        {
            "children" : [
                6,
                7
            ],
            "name" : "Torus.001",
            "rotation" : [
                -0.011485994793474674,
                0.9999340772628784,
                0,
                7.455767558894877e-08
            ],
            "scale" : [
                24.71795654296875,
                24.71795654296875,
                24.717954635620117
            ],
            "translation" : [
                44.14710998535156,
                61.49134063720703,
                133.74952697753906
            ]
        },
        {
            "children" : [
                3,
                5,
                8
            ],
            "name" : "RootNode"
        },
        {
            "children" : [
                9
            ],
            "name" : "36d287efe2c7486faa8007f3830072fc.fbx",
            "rotation" : [
                0.7071068286895752,
                0,
                0,
                0.7071068286895752
            ]
        },
        {
            "children" : [
                10
            ],
            "name" : "RootNode (model correction matrix)"
        },
        {
            "children" : [
                11
            ],
            "name" : "RootNode (gltf orientation matrix)",
            "rotation" : [
                -0.7071068286895752,
                0,
                0,
                0.7071068286895752
            ],
            "scale" : [
                0.4970444440841675,
                0.6132264733314514,
                0.4970444440841675
            ],
            "translation" : [
                0,
                -65.41165924072266,
                -28.340839385986328
            ]
        },
        {
            "name" : "Node_6"
        },
        {
            "children" : [
                13
            ],
            "name" : "Node_5",
            "rotation" : [
                0.7071068286895752,
                0,
                0,
                0.7071068286895752
            ],
            "scale" : [
                0.4970444440841675,
                0.6132264733314514,
                0.4970444440841675
            ],
            "translation" : [
                0,
                -65.41165924072266,
                -28.340839385986328
            ]
        },
        {
            "name" : "Node_8",
            "scale" : [
                0.4970444440841675,
                0.4970444440841675,
                0.6132264733314514
            ],
            "translation" : [
                0,
                -65.41165924072266,
                -28.340839385986328
            ]
        }
    ],
    "materials" : [
        {
            "doubleSided" : true,
            "name" : "metal",
            "pbrMetallicRoughness" : {
                "baseColorFactor" : [
                    0.22658400237560272,
                    0.22658400237560272,
                    0.22658400237560272,
                    1
                ],
                "metallicFactor" : 0,
                "roughnessFactor" : 0.9493342638015747
            }
        },
        {
            "doubleSided" : true,
            "name" : "material.001",
            "pbrMetallicRoughness" : {
                "baseColorFactor" : [
                    0.8000000715255737,
                    0.7595447897911072,
                    0.7897713780403137,
                    1
                ],
                "metallicFactor" : 0,
                "roughnessFactor" : 1
            }
        },
        {
            "doubleSided" : true,
            "name" : "wheel",
            "pbrMetallicRoughness" : {
                "baseColorFactor" : [
                    0.800000011920929,
                    0.800000011920929,
                    0.800000011920929,
                    1
                ],
                "metallicFactor" : 0,
                "roughnessFactor" : 0.8211145401000977
            }
        },
        {
            "doubleSided" : true,
            "name" : "Material.001",
            "pbrMetallicRoughness" : {
                "baseColorFactor" : [
                    1,
                    0.9735570549964905,
                    0.9619611501693726,
                    1
                ],
                "metallicFactor" : 0,
                "roughnessFactor" : 1
            }
        }
    ],
    "meshes" : [
        {
            "name" : "Cube_metal_0",
            "primitives" : [
                {
                    "attributes" : {
                        "POSITION" : 0,
                        "NORMAL" : 1
                    },
                    "indices" : 2,
                    "material" : 0
                }
            ]
        },
        {
            "name" : "Cube_red_0",
            "primitives" : [
                {
                    "attributes" : {
                        "POSITION" : 3,
                        "NORMAL" : 4
                    },
                    "indices" : 5,
                    "material" : 1
                }
            ]
        },
        {
            "name" : "Cube_wheel_0",
            "primitives" : [
                {
                    "attributes" : {
                        "POSITION" : 6,
                        "NORMAL" : 7
                    },
                    "indices" : 8,
                    "material" : 2
                }
            ]
        },
        {
            "name" : "Plane.001_Material.001_0",
            "primitives" : [
                {
                    "attributes" : {
                        "POSITION" : 9,
                        "NORMAL" : 10
                    },
                    "indices" : 11,
                    "material" : 3
                }
            ]
        },
        {
            "name" : "Torus.001_metal_0",
            "primitives" : [
                {
                    "attributes" : {
                        "POSITION" : 12,
                        "NORMAL" : 13
                    },
                    "indices" : 14,
                    "material" : 0
                }
            ]
        },
        {
            "name" : "Torus.001_wheel_0",
            "primitives" : [
                {
                    "attributes" : {
                        "POSITION" : 15,
                        "NORMAL" : 16
                    },
                    "indices" : 17,
                    "material" : 2
                }
            ]
        }
    ],
    "accessors" : [
        {
            "bufferView" : 0,
            "componentType" : 5126,
            "count" : 7440,
            "max" : [
                5.567556858062744,
                1.4241820573806763,
                1.7686259746551514
            ],
            "min" : [
                -1.1991873979568481,
                -1.4211649894714355,
                -3.397944688796997
            ],
            "type" : "VEC3"
        },
        {
            "bufferView" : 1,
            "componentType" : 5126,
            "count" : 7440,
            "type" : "VEC3"
        },
        {
            "bufferView" : 2,
            "componentType" : 5123,
            "count" : 7608,
            "type" : "SCALAR"
        },
        {
            "bufferView" : 3,
            "componentType" : 5126,
            "count" : 3222,
            "max" : [
                3.9016871452331543,
                1.284441590309143,
                3.0767998695373535
            ],
            "min" : [
                -1.5838130712509155,
                -1.2804803848266602,
                -1.146418571472168
            ],
            "type" : "VEC3"
        },
        {
            "bufferView" : 4,
            "componentType" : 5126,
            "count" : 3222,
            "type" : "VEC3"
        },
        {
            "bufferView" : 5,
            "componentType" : 5123,
            "count" : 3474,
            "type" : "SCALAR"
        },
        {
            "bufferView" : 6,
            "componentType" : 5126,
            "count" : 690,
            "max" : [
                5.569406509399414,
                0.9444012641906738,
                1.787939190864563
            ],
            "min" : [
                5.317435264587402,
                -0.9444013237953186,
                1.4913289546966553
            ],
            "type" : "VEC3"
        },
        {
            "bufferView" : 7,
            "componentType" : 5126,
            "count" : 690,
            "type" : "VEC3"
        },
        {
            "bufferView" : 8,
            "componentType" : 5123,
            "count" : 732,
            "type" : "SCALAR"
        },
        {
            "bufferView" : 9,
            "componentType" : 5126,
            "count" : 100,
            "max" : [
                0.7914842367172241,
                0.7826976776123047,
                0.17617250978946686
            ],
            "min" : [
                -0.7903367877006531,
                -1.0978522300720215,
                -0.2186298966407776
            ],
            "type" : "VEC3"
        },
        {
            "bufferView" : 10,
            "componentType" : 5126,
            "count" : 100,
            "type" : "VEC3"
        },
        {
            "bufferView" : 11,
            "componentType" : 5123,
            "count" : 486,
            "type" : "SCALAR"
        },
        {
            "bufferView" : 12,
            "componentType" : 5126,
            "count" : 8186,
            "max" : [
                4.744450092315674,
                0.9510818123817444,
                5.124355316162109
            ],
            "min" : [
                -0.8929341435432434,
                -0.861875057220459,
                1.2429215908050537
            ],
            "type" : "VEC3"
        },
        {
            "bufferView" : 13,
            "componentType" : 5126,
            "count" : 8186,
            "type" : "VEC3"
        },
        {
            "bufferView" : 14,
            "componentType" : 5123,
            "count" : 8814,
            "type" : "SCALAR"
        },
        {
            "bufferView" : 15,
            "componentType" : 5126,
            "count" : 5936,
            "max" : [
                4.984843730926514,
                1.1937406063079834,
                5.095213890075684
            ],
            "min" : [
                -1.1045334339141846,
                -1.1045339107513428,
                1.2979471683502197
            ],
            "type" : "VEC3"
        },
        {
            "bufferView" : 16,
            "componentType" : 5126,
            "count" : 5936,
            "type" : "VEC3"
        },
        {
            "bufferView" : 17,
            "componentType" : 5123,
            "count" : 6234,
            "type" : "SCALAR"
        }
    ],
    "bufferViews" : [
        {
            "buffer" : 0,
            "byteLength" : 89280,
            "byteOffset" : 0
        },
        {
            "buffer" : 0,
            "byteLength" : 89280,
            "byteOffset" : 89280
        },
        {
            "buffer" : 0,
            "byteLength" : 15216,
            "byteOffset" : 178560
        },
        {
            "buffer" : 0,
            "byteLength" : 38664,
            "byteOffset" : 193776
        },
        {
            "buffer" : 0,
            "byteLength" : 38664,
            "byteOffset" : 232440
        },
        {
            "buffer" : 0,
            "byteLength" : 6948,
            "byteOffset" : 271104
        },
        {
            "buffer" : 0,
            "byteLength" : 8280,
            "byteOffset" : 278052
        },
        {
            "buffer" : 0,
            "byteLength" : 8280,
            "byteOffset" : 286332
        },
        {
            "buffer" : 0,
            "byteLength" : 1464,
            "byteOffset" : 294612
        },
        {
            "buffer" : 0,
            "byteLength" : 1200,
            "byteOffset" : 296076
        },
        {
            "buffer" : 0,
            "byteLength" : 1200,
            "byteOffset" : 297276
        },
        {
            "buffer" : 0,
            "byteLength" : 972,
            "byteOffset" : 298476
        },
        {
            "buffer" : 0,
            "byteLength" : 98232,
            "byteOffset" : 299448
        },
        {
            "buffer" : 0,
            "byteLength" : 98232,
            "byteOffset" : 397680
        },
        {
            "buffer" : 0,
            "byteLength" : 17628,
            "byteOffset" : 495912
        },
        {
            "buffer" : 0,
            "byteLength" : 71232,
            "byteOffset" : 513540
        },
        {
            "buffer" : 0,
            "byteLength" : 71232,
            "byteOffset" : 584772
        },
        {
            "buffer" : 0,
            "byteLength" : 12468,
            "byteOffset" : 656004
        }
    ],
    "buffers" : [
        {
            "byteLength" : 668472,
            "uri" : "data:application/octet-stream;base64,"
        }
    ]
}
